# xmcd
#
# Track frame offsets:
#	150
#	18619
#	34809
#	54131
#	76288
#	97938
#	117932
#	138312
#	164202
#	182940
#	202282
#	224756
#
# Disc length: 3292 seconds
#
# Revision: 0
# Processed by: cddbd v1.5.1PL0 Copyright (c) Steve Scherf et al.
# Submitted via: dBpowerAMP V4.0
#
DISCID=b20cda0c
DTITLE=Connie and the Choirboys - Red-Headed Rythm and Blues
DYEAR=2005
DGENRE=Blues
TTITLE0=Bad Love
TTITLE1=Chain of Fools
TTITLE2=Don't Miss The Water
TTITLE3=Trouble Makin Woman
TTITLE4=Honey Do
TTITLE5=Best Thing You'll Never Have
TTITLE6=Your Love
TTITLE7=Since I Fell For You
TTITLE8=Why Do Me Like That
TTITLE9=Blues In My Life
TTITLE10=Just My Style
TTITLE11=Better Off With The Blues
EXTD=
EXTT0=
EXTT1=
EXTT2=
EXTT3=
EXTT4=
EXTT5=
EXTT6=
EXTT7=
EXTT8=
EXTT9=
EXTT10=
EXTT11=
PLAYORDER=
